<svg width="173" height="30" viewBox="0 0 173 30" fill="none" xmlns="http://www.w3.org/2000/svg">
<path d="M14 0.388672C14.4603 0.388672 14.8785 0.655209 15.0726 1.07294L27.8896 28.7059C28.0852 29.1276 28.0173 29.6258 27.7144 29.9781C27.4112 30.3304 26.9295 30.4715 26.4839 30.3405L14 26.6647L1.5161 30.3405C1.07046 30.4715 0.588764 30.3304 0.285613 29.9781C-0.0172911 29.6258 -0.0851948 29.1276 0.11038 28.7059L12.9274 1.07294L13.0102 0.924524C13.2265 0.593122 13.597 0.388672 14 0.388672ZM3.35508 27.3316L9.80981 25.4311L9.72316 25.406C9.14632 25.2362 8.78847 24.6613 8.89128 24.0683L11.2983 10.2036L3.35508 27.3316ZM19.1087 24.0683C19.2115 24.6613 18.8537 25.2362 18.2768 25.406L18.1883 25.4311L24.643 27.3316L16.6997 10.2036L19.1087 24.0683ZM11.4004 23.4322L14 24.1975L16.5977 23.4322L14 8.47849L11.4004 23.4322Z" fill="url(#paint0_linear_3837_547)"/>
<path fill-rule="evenodd" clip-rule="evenodd" d="M53.4304 23.9942C53.3773 23.9942 53.3298 23.9609 53.3115 23.9107L52.2108 20.8985H45.3245L44.2238 23.9107C44.2054 23.9609 44.1579 23.9942 44.1048 23.9942H42.1268C42.0372 23.9942 41.9759 23.9031 42.0092 23.8193L42.2999 23.0864L48.0809 7.26772C48.3166 6.62269 49.2221 6.62137 49.4597 7.26573L55.3522 23.2477L55.5608 23.8229C55.591 23.9061 55.5298 23.9942 55.4418 23.9942H53.4304ZM51.418 18.7307H46.1172L48.7676 11.4771L51.418 18.7307Z" fill="url(#paint1_linear_3837_547)"/>
<path d="M76.262 6.7749C76.402 6.7749 76.5154 6.88917 76.5154 7.03012V8.58697C76.5154 8.72793 76.402 8.84219 76.262 8.84219H67.6875V14.355H73.6985C73.8384 14.355 73.9519 14.4692 73.9519 14.6102V16.167C73.9519 16.308 73.8384 16.4223 73.6985 16.4223H67.6875V21.935H76.262C76.402 21.935 76.5154 22.0493 76.5154 22.1903V23.7471C76.5154 23.8881 76.402 24.0023 76.262 24.0023H65.8223C65.6823 24.0023 65.5688 23.8881 65.5688 23.7471V7.03012C65.5688 6.88917 65.6823 6.7749 65.8223 6.7749H76.262Z" fill="url(#paint2_linear_3837_547)"/>
<path fill-rule="evenodd" clip-rule="evenodd" d="M96.7776 11.5922C96.7776 13.8823 95.4979 15.4977 93.8732 16.1252L95.8943 20.027C96.3072 20.824 96.6696 21.5245 96.9292 22.0256L97.2346 22.6151L97.7768 23.829C97.8145 23.9134 97.7532 24.009 97.6613 24.009H96.6043H95.6251C95.5673 24.009 95.5168 23.9695 95.5024 23.9131L95.4153 23.5714L95.1099 22.9819C94.8503 22.4807 94.4873 21.7804 94.0743 20.9832C93.3444 19.574 92.4573 17.8629 91.7078 16.4159H88.5676V23.7537C88.5676 23.8947 88.4542 24.009 88.3142 24.009H86.7686C86.6286 24.009 86.5151 23.8947 86.5151 23.7537V7.02378C86.5151 6.88282 86.6286 6.76855 86.7686 6.76855H92.3305C94.6077 6.76855 96.7776 8.60953 96.7776 11.5922ZM92.3305 8.83585C93.4741 8.83585 94.7251 9.75126 94.7251 11.5922C94.7251 13.4332 93.4741 14.3486 92.3305 14.3486H88.5676V8.83585H92.3305Z" fill="url(#paint3_linear_3837_547)"/>
<path d="M119.292 6.7749C119.362 6.7749 119.419 6.83204 119.419 6.90251V8.71458C119.419 8.78506 119.362 8.84219 119.292 8.84219H114.63V23.8747C114.63 23.9452 114.573 24.0023 114.503 24.0023H112.704C112.634 24.0023 112.577 23.9452 112.577 23.8747V8.84219H107.915C107.845 8.84219 107.788 8.78506 107.788 8.71458V6.90251C107.788 6.83204 107.845 6.7749 107.915 6.7749H119.292Z" fill="url(#paint4_linear_3837_547)"/>
<path fill-rule="evenodd" clip-rule="evenodd" d="M139.681 11.5922C139.681 13.8823 138.402 15.4977 136.777 16.1252L138.798 20.027C139.211 20.824 139.573 21.5245 139.833 22.0256L140.138 22.6151L140.681 23.829C140.718 23.9134 140.657 24.009 140.565 24.009H139.508H138.529C138.471 24.009 138.421 23.9695 138.406 23.9131L138.319 23.5714L138.014 22.9819C137.754 22.4807 137.391 21.7804 136.978 20.9832C136.248 19.574 135.361 17.8629 134.612 16.4159H131.471V23.7537C131.471 23.8947 131.358 24.009 131.218 24.009H129.672C129.532 24.009 129.419 23.8947 129.419 23.7537V7.02378C129.419 6.88282 129.532 6.76855 129.672 6.76855H135.234C137.512 6.76855 139.681 8.60953 139.681 11.5922ZM135.234 8.83585C136.378 8.83585 137.629 9.75126 137.629 11.5922C137.629 13.4332 136.378 14.3486 135.234 14.3486H131.471V8.83585H135.234Z" fill="url(#paint5_linear_3837_547)"/>
<path d="M152.618 6.76196C152.688 6.76196 152.744 6.8191 152.744 6.88957V23.8877C152.744 23.9582 152.688 24.0153 152.618 24.0153H150.819C150.749 24.0153 150.692 23.9582 150.692 23.8877V6.88957C150.692 6.8191 150.749 6.76196 150.819 6.76196H152.618Z" fill="url(#paint6_linear_3837_547)"/>
<path fill-rule="evenodd" clip-rule="evenodd" d="M173.007 11.5922C173.007 13.8823 171.727 15.4977 170.103 16.1252C169.3 16.3519 168.446 16.4159 167.937 16.4159H164.797V23.7537C164.797 23.8947 164.684 24.009 164.544 24.009H162.998C162.858 24.009 162.745 23.8947 162.745 23.7537V7.02378C162.745 6.88282 162.858 6.76855 162.998 6.76855H168.56C170.837 6.76855 173.007 8.60953 173.007 11.5922ZM168.56 8.83585C169.704 8.83585 170.955 9.75126 170.955 11.5922C170.955 13.4332 169.704 14.3486 168.56 14.3486H164.797V8.83585H168.56Z" fill="url(#paint7_linear_3837_547)"/>
<defs>
<linearGradient id="paint0_linear_3837_547" x1="28" y1="0.388672" x2="-6.48266" y2="14.8053" gradientUnits="userSpaceOnUse">
<stop stop-color="#00CC99"/>
<stop offset="1" stop-color="#00A0A8"/>
</linearGradient>
<linearGradient id="paint1_linear_3837_547" x1="55.5686" y1="6.7832" x2="38.1145" y2="12.9471" gradientUnits="userSpaceOnUse">
<stop stop-color="#00CC99"/>
<stop offset="1" stop-color="#00A0A8"/>
</linearGradient>
<linearGradient id="paint2_linear_3837_547" x1="76.5154" y1="6.7749" x2="61.865" y2="10.9449" gradientUnits="userSpaceOnUse">
<stop stop-color="#00CC99"/>
<stop offset="1" stop-color="#00A0A8"/>
</linearGradient>
<linearGradient id="paint3_linear_3837_547" x1="97.7881" y1="6.76855" x2="82.7672" y2="11.1682" gradientUnits="userSpaceOnUse">
<stop stop-color="#00CC99"/>
<stop offset="1" stop-color="#00A0A8"/>
</linearGradient>
<linearGradient id="paint4_linear_3837_547" x1="119.419" y1="6.7749" x2="104.002" y2="11.4374" gradientUnits="userSpaceOnUse">
<stop stop-color="#00CC99"/>
<stop offset="1" stop-color="#00A0A8"/>
</linearGradient>
<linearGradient id="paint5_linear_3837_547" x1="140.692" y1="6.76855" x2="125.671" y2="11.1682" gradientUnits="userSpaceOnUse">
<stop stop-color="#00CC99"/>
<stop offset="1" stop-color="#00A0A8"/>
</linearGradient>
<linearGradient id="paint6_linear_3837_547" x1="152.744" y1="6.76196" x2="149.783" y2="6.91976" gradientUnits="userSpaceOnUse">
<stop stop-color="#00CC99"/>
<stop offset="1" stop-color="#00A0A8"/>
</linearGradient>
<linearGradient id="paint7_linear_3837_547" x1="173.007" y1="6.76855" x2="159.145" y2="10.4648" gradientUnits="userSpaceOnUse">
<stop stop-color="#00CC99"/>
<stop offset="1" stop-color="#00A0A8"/>
</linearGradient>
</defs>
</svg>
